<svg width="50" height="50" viewBox="0 0 50 50" fill="none" xmlns="http://www.w3.org/2000/svg">
<path d="M25 0C38.8075 0 50 11.1925 50 25C50 38.8075 38.8075 50 25 50C11.1925 50 0 38.8075 0 25C0 11.1925 11.1925 0 25 0ZM25 5C19.6957 5 14.6086 7.10714 10.8579 10.8579C7.10714 14.6086 5 19.6957 5 25C5 30.3043 7.10714 35.3914 10.8579 39.1421C14.6086 42.8929 19.6957 45 25 45C30.3043 45 35.3914 42.8929 39.1421 39.1421C42.8929 35.3914 45 30.3043 45 25C45 19.6957 42.8929 14.6086 39.1421 10.8579C35.3914 7.10714 30.3043 5 25 5ZM14.32 30.2775C17.865 29.4625 21.6575 29.4725 24.9375 29.98C28.1275 30.475 31.2225 31.505 33.13 33.065C33.6246 33.4667 33.9472 34.0422 34.0318 34.6738C34.1164 35.3054 33.9565 35.9455 33.585 36.4632C33.2135 36.9809 32.6583 37.3372 32.0328 37.4593C31.4074 37.5814 30.759 37.46 30.22 37.12L29.965 36.9375C29.075 36.2075 27.02 35.3625 24.17 34.9225C21.4075 34.4925 18.265 34.5025 15.44 35.15C15.1183 35.2284 14.7843 35.2422 14.4573 35.1904C14.1303 35.1387 13.8168 35.0225 13.5351 34.8487C13.2533 34.6748 13.0089 34.4467 12.816 34.1776C12.6231 33.9086 12.4856 33.6038 12.4114 33.2812C12.3373 32.9585 12.3279 32.6243 12.3839 32.298C12.44 31.9717 12.5603 31.6598 12.7378 31.3804C12.9154 31.1009 13.1467 30.8595 13.4183 30.6702C13.6899 30.4809 13.9964 30.3474 14.32 30.2775ZM13.02 23.45C21.1675 21.1775 30.645 22.4625 36.4275 26.0125C36.9927 26.3596 37.3969 26.917 37.5512 27.5622C37.7054 28.2073 37.5971 28.8873 37.25 29.4525C36.9029 30.0177 36.3455 30.4219 35.7003 30.5762C35.0552 30.7304 34.3752 30.6221 33.81 30.275C29.3525 27.5375 21.335 26.3225 14.36 28.265C14.0406 28.3637 13.7047 28.3974 13.3721 28.3641C13.0395 28.3307 12.7169 28.231 12.4235 28.0708C12.1301 27.9106 11.8718 27.6932 11.6639 27.4314C11.456 27.1697 11.3027 26.8689 11.2131 26.5468C11.1235 26.2248 11.0994 25.888 11.1422 25.5565C11.1849 25.225 11.2938 24.9054 11.4623 24.6166C11.6307 24.3279 11.8554 24.0759 12.1229 23.8755C12.3905 23.6751 12.6955 23.5304 13.02 23.45ZM11.825 16.285C21.225 13.66 30.565 15.0225 38.49 18.445C39.0934 18.7114 39.5671 19.2054 39.8079 19.8195C40.0487 20.4335 40.037 21.1178 39.7755 21.7234C39.514 22.3289 39.0237 22.8065 38.4116 23.0522C37.7995 23.2979 37.1151 23.2917 36.5075 23.035C29.4325 19.9775 21.2725 18.84 13.17 21.1C12.852 21.1945 12.5183 21.2247 12.1885 21.189C11.8587 21.1532 11.5393 21.0522 11.2489 20.8917C10.9585 20.7313 10.703 20.5147 10.4971 20.2544C10.2913 19.9942 10.1394 19.6957 10.0501 19.3761C9.96085 19.0566 9.93609 18.7225 9.97726 18.3933C10.0184 18.0641 10.1247 17.7464 10.2899 17.4587C10.4551 17.171 10.6759 16.919 10.9395 16.7175C11.203 16.516 11.504 16.369 11.825 16.285Z" fill="url(#paint0_linear_319_677)"/>
<defs>
<linearGradient id="paint0_linear_319_677" x1="25" y1="0" x2="25" y2="50" gradientUnits="userSpaceOnUse">
<stop stop-color="white"/>
<stop offset="1" stop-color="white" stop-opacity="0"/>
</linearGradient>
</defs>
</svg>
