<svg width="50" height="50" viewBox="0 0 50 50" fill="none" xmlns="http://www.w3.org/2000/svg">
<path d="M37.3214 8.52C35.4908 6.43874 34.4819 3.7664 34.4821 1H26.2054V34.0667C26.1428 35.8565 25.3844 37.5522 24.0901 38.796C22.7958 40.0398 21.0668 40.7344 19.2679 40.7333C15.4643 40.7333 12.3036 37.64 12.3036 33.8C12.3036 29.2133 16.75 25.7733 21.3304 27.1867V18.76C12.0893 17.5333 4 24.68 4 33.8C4 42.68 11.3929 49 19.2411 49C27.6518 49 34.4821 42.2 34.4821 33.8V17.0267C37.8384 19.4263 41.8679 20.7137 46 20.7067V12.4667C46 12.4667 40.9643 12.7067 37.3214 8.52Z" fill="url(#paint0_linear_319_679)"/>
<defs>
<linearGradient id="paint0_linear_319_679" x1="25" y1="1" x2="25" y2="49" gradientUnits="userSpaceOnUse">
<stop stop-color="white"/>
<stop offset="1" stop-color="white" stop-opacity="0"/>
</linearGradient>
</defs>
</svg>
