<svg width="86" height="86" viewBox="0 0 86 86" fill="none" xmlns="http://www.w3.org/2000/svg">
<path fill-rule="evenodd" clip-rule="evenodd" d="M24.2 25C22.2904 25 20.4591 25.7421 19.1088 27.063C17.7586 28.3839 17 30.1754 17 32.0435V53.9565C17 55.8246 17.7586 57.6161 19.1088 58.937C20.4591 60.2579 22.2904 61 24.2 61H49.8C51.7096 61 53.5409 60.2579 54.8912 58.937C56.2414 57.6161 57 55.8246 57 53.9565V51.4929L67.2112 56.489C67.821 56.7873 68.4987 56.9282 69.1798 56.8982C69.8609 56.8682 70.5229 56.6684 71.1029 56.3177C71.6829 55.9671 72.1616 55.4772 72.4936 54.8947C72.8257 54.3121 73 53.6562 73 52.9892V33.0108C73 32.3438 72.8257 31.6879 72.4936 31.1053C72.1616 30.5228 71.6829 30.0329 71.1029 29.6823C70.5229 29.3316 69.8609 29.1318 69.1798 29.1018C68.4987 29.0718 67.821 29.2127 67.2112 29.511L57 34.504V32.0435C57 30.1754 56.2414 28.3839 54.8912 27.063C53.5409 25.7421 51.7096 25 49.8 25H24.2ZM57 39.7569V46.2431L68.2 51.7214V34.2755L57 39.7569ZM52.2 32.0435C52.2 31.4208 51.9471 30.8236 51.4971 30.3833C51.047 29.943 50.4365 29.6957 49.8 29.6957H24.2C23.5635 29.6957 22.953 29.943 22.5029 30.3833C22.0529 30.8236 21.8 31.4208 21.8 32.0435V53.9565C21.8 55.2525 22.8752 56.3043 24.2 56.3043H49.8C50.4365 56.3043 51.047 56.057 51.4971 55.6167C51.9471 55.1764 52.2 54.5792 52.2 53.9565V32.0435Z" fill="url(#paint0_linear_319_923)"/>
<defs>
<linearGradient id="paint0_linear_319_923" x1="17" y1="43" x2="73" y2="43" gradientUnits="userSpaceOnUse">
<stop stop-color="#FE0307"/>
<stop offset="1" stop-color="#FE0307" stop-opacity="0.4"/>
</linearGradient>
</defs>
</svg>
