<svg width="50" height="50" viewBox="0 0 50 50" fill="none" xmlns="http://www.w3.org/2000/svg">
<path d="M15.34 1H34.66C42.02 1 48 7.11 48 14.63V34.37C48 37.9849 46.5945 41.4517 44.0928 44.0079C41.5911 46.564 38.198 48 34.66 48H15.34C7.98 48 2 41.89 2 34.37V14.63C2 11.0151 3.40546 7.54826 5.9072 4.99213C8.40893 2.43601 11.802 1 15.34 1ZM14.88 5.7C12.684 5.7 10.578 6.59132 9.02516 8.17788C7.47235 9.76443 6.6 11.9163 6.6 14.16V34.84C6.6 39.5165 10.303 43.3 14.88 43.3H35.12C37.316 43.3 39.422 42.4087 40.9748 40.8221C42.5276 39.2356 43.4 37.0837 43.4 34.84V14.16C43.4 9.4835 39.697 5.7 35.12 5.7H14.88ZM37.075 9.225C37.8375 9.225 38.5688 9.53449 39.1079 10.0854C39.6471 10.6363 39.95 11.3834 39.95 12.1625C39.95 12.9416 39.6471 13.6887 39.1079 14.2396C38.5688 14.7905 37.8375 15.1 37.075 15.1C36.3125 15.1 35.5812 14.7905 35.0421 14.2396C34.5029 13.6887 34.2 12.9416 34.2 12.1625C34.2 11.3834 34.5029 10.6363 35.0421 10.0854C35.5812 9.53449 36.3125 9.225 37.075 9.225ZM25 12.75C28.05 12.75 30.9751 13.9879 33.1317 16.1915C35.2884 18.395 36.5 21.3837 36.5 24.5C36.5 27.6163 35.2884 30.605 33.1317 32.8085C30.9751 35.0121 28.05 36.25 25 36.25C21.95 36.25 19.0249 35.0121 16.8683 32.8085C14.7116 30.605 13.5 27.6163 13.5 24.5C13.5 21.3837 14.7116 18.395 16.8683 16.1915C19.0249 13.9879 21.95 12.75 25 12.75ZM25 17.45C23.17 17.45 21.415 18.1928 20.121 19.5149C18.827 20.837 18.1 22.6302 18.1 24.5C18.1 26.3698 18.827 28.163 20.121 29.4851C21.415 30.8072 23.17 31.55 25 31.55C26.83 31.55 28.585 30.8072 29.879 29.4851C31.173 28.163 31.9 26.3698 31.9 24.5C31.9 22.6302 31.173 20.837 29.879 19.5149C28.585 18.1928 26.83 17.45 25 17.45Z" fill="url(#paint0_linear_319_681)"/>
<defs>
<linearGradient id="paint0_linear_319_681" x1="25" y1="1" x2="25" y2="48" gradientUnits="userSpaceOnUse">
<stop stop-color="white"/>
<stop offset="1" stop-color="white" stop-opacity="0"/>
</linearGradient>
</defs>
</svg>
