<svg width="86" height="86" viewBox="0 0 86 86" fill="none" xmlns="http://www.w3.org/2000/svg">
<path fill-rule="evenodd" clip-rule="evenodd" d="M53.2254 19C53.879 19 54.5058 19.2596 54.968 19.7218C55.4301 20.1839 55.6897 20.8107 55.6897 21.4643V25.5714H62.2612C63.1326 25.5714 63.9683 25.9176 64.5845 26.5338C65.2007 27.15 65.5469 27.9857 65.5469 28.8571V61.7143C65.5469 62.5857 65.2007 63.4214 64.5845 64.0376C63.9683 64.6538 63.1326 65 62.2612 65H22.8326C21.9612 65 21.1254 64.6538 20.5092 64.0376C19.893 63.4214 19.5469 62.5857 19.5469 61.7143V28.8571C19.5469 27.9857 19.893 27.15 20.5092 26.5338C21.1254 25.9176 21.9612 25.5714 22.8326 25.5714H29.404V21.4643C29.404 20.8107 29.6636 20.1839 30.1258 19.7218C30.5879 19.2596 31.2147 19 31.8683 19C32.5219 19 33.1487 19.2596 33.6108 19.7218C34.073 20.1839 34.3326 20.8107 34.3326 21.4643V25.5714H50.7612V21.4643C50.7612 20.8107 51.0208 20.1839 51.4829 19.7218C51.9451 19.2596 52.5719 19 53.2254 19ZM24.4754 40.3571V60.0714H60.6183V40.3571H24.4754ZM24.4754 35.4286H60.6183V30.5H24.4754V35.4286ZM50.0383 45.1871C50.4998 45.6492 50.759 46.2755 50.759 46.9286C50.759 47.5816 50.4998 48.2079 50.0383 48.67L42.6454 56.0629C42.1834 56.5243 41.5571 56.7835 40.904 56.7835C40.251 56.7835 39.6246 56.5243 39.1626 56.0629L35.0554 51.9557C34.8133 51.7301 34.6191 51.4581 34.4845 51.1558C34.3498 50.8535 34.2773 50.5272 34.2715 50.1963C34.2657 49.8654 34.3265 49.5367 34.4505 49.2299C34.5744 48.923 34.7589 48.6443 34.9929 48.4103C35.2269 48.1763 35.5056 47.9918 35.8125 47.8679C36.1193 47.7439 36.448 47.6831 36.7789 47.6889C37.1098 47.6948 37.4361 47.7672 37.7384 47.9019C38.0406 48.0366 38.3127 48.2307 38.5383 48.4729L40.904 50.8386L46.5554 45.1871C47.0175 44.7257 47.6438 44.4665 48.2969 44.4665C48.9499 44.4665 49.5762 44.7257 50.0383 45.1871Z" fill="url(#paint0_linear_319_916)"/>
<defs>
<linearGradient id="paint0_linear_319_916" x1="19.5469" y1="42" x2="65.5469" y2="42" gradientUnits="userSpaceOnUse">
<stop stop-color="#FE0307"/>
<stop offset="1" stop-color="#FE0307" stop-opacity="0.4"/>
</linearGradient>
</defs>
</svg>
