<svg width="86" height="86" viewBox="0 0 86 86" fill="none" xmlns="http://www.w3.org/2000/svg">
<path d="M43.3438 54.6666C46.3647 54.6666 48.9328 53.6097 51.0482 51.496C53.1636 49.3822 54.2204 46.8141 54.2188 43.7916C54.2172 40.7692 53.1603 38.2019 51.0482 36.0897C48.936 33.9775 46.3679 32.9198 43.3438 32.9166C40.3198 32.9134 37.7525 33.9711 35.6419 36.0897C33.5314 38.2083 32.4737 40.7756 32.4688 43.7916C32.464 46.8076 33.5217 49.3757 35.6419 51.496C37.7621 53.6162 40.3294 54.6731 43.3438 54.6666ZM43.3438 50.3166C41.5313 50.3166 39.9911 49.6819 38.7232 48.4123C37.4552 47.1427 36.8204 45.6025 36.8188 43.7916C36.8172 41.9807 37.452 40.4405 38.7232 39.171C39.9943 37.9014 41.5346 37.2666 43.3438 37.2666C45.1531 37.2666 46.6941 37.9014 47.9669 39.171C49.2397 40.4405 49.8737 41.9807 49.8688 43.7916C49.864 45.6025 49.23 47.1435 47.9669 48.4147C46.7038 49.6859 45.1628 50.3199 43.3438 50.3166ZM43.3438 61.9166C37.4633 61.9166 32.1063 60.2757 27.273 56.9939C22.4397 53.712 18.9355 49.3113 16.7605 43.7916C18.9355 38.2736 22.4397 33.8736 27.273 30.5918C32.1063 27.31 37.4633 25.6682 43.3438 25.6666C49.2244 25.665 54.5813 27.3067 59.4147 30.5918C64.248 33.8769 67.7522 38.2768 69.9272 43.7916C67.7522 49.3097 64.248 53.7104 59.4147 56.9939C54.5813 60.2773 49.2244 61.9182 43.3438 61.9166ZM43.3438 57.0833C47.8952 57.0833 52.0744 55.8854 55.8815 53.4897C59.6886 51.094 62.5982 47.8613 64.6105 43.7916C62.5966 39.7236 59.6861 36.4917 55.8791 34.096C52.072 31.7002 47.8936 30.5016 43.3438 30.5C38.7941 30.4983 34.6156 31.697 30.8086 34.096C27.0015 36.4949 24.0911 39.7268 22.0772 43.7916C24.0911 47.8597 27.0015 51.0924 30.8086 53.4897C34.6156 55.887 38.7941 57.0849 43.3438 57.0833Z" fill="url(#paint0_linear_319_932)"/>
<defs>
<linearGradient id="paint0_linear_319_932" x1="16.7605" y1="43.7916" x2="69.9272" y2="43.7916" gradientUnits="userSpaceOnUse">
<stop stop-color="#FE0307"/>
<stop offset="1" stop-color="#FE0307" stop-opacity="0.4"/>
</linearGradient>
</defs>
</svg>
