<svg width="65" height="50" viewBox="0 0 65 50" fill="none" xmlns="http://www.w3.org/2000/svg">
<path d="M38.4167 25.0001L28.0625 30.8334V19.1667L38.4167 25.0001Z" fill="url(#paint0_linear_319_674)" stroke="url(#paint1_linear_319_674)" stroke-width="5" stroke-linecap="round" stroke-linejoin="round"/>
<path d="M2.91675 27.0648V22.9348C2.91675 14.4911 2.91675 10.2678 5.59404 7.55234C8.27429 4.834 12.4929 4.71734 20.9271 4.48109C24.9208 4.37025 29.0033 4.2915 32.5001 4.2915C35.9968 4.2915 40.0764 4.37025 44.0731 4.48109C52.5073 4.71734 56.7259 4.834 59.4032 7.55234C62.0805 10.2707 62.0834 14.494 62.0834 22.9348V27.0619C62.0834 35.5086 62.0834 39.729 59.4061 42.4473C56.7259 45.1628 52.5102 45.2823 44.0731 45.5157C40.0793 45.6294 35.9968 45.7082 32.5001 45.7082C29.0033 45.7082 24.9238 45.6294 20.9271 45.5157C12.4929 45.2823 8.27429 45.1657 5.59404 42.4473C2.91379 39.729 2.91675 35.5057 2.91675 27.0648Z" stroke="url(#paint2_linear_319_674)" stroke-width="5"/>
<defs>
<linearGradient id="paint0_linear_319_674" x1="33.2396" y1="19.1667" x2="33.2396" y2="30.8334" gradientUnits="userSpaceOnUse">
<stop stop-color="white"/>
<stop offset="1" stop-color="white" stop-opacity="0"/>
</linearGradient>
<linearGradient id="paint1_linear_319_674" x1="33.2396" y1="19.1667" x2="33.2396" y2="30.8334" gradientUnits="userSpaceOnUse">
<stop stop-color="white"/>
<stop offset="1" stop-color="white" stop-opacity="0"/>
</linearGradient>
<linearGradient id="paint2_linear_319_674" x1="32.5001" y1="4.2915" x2="32.5001" y2="45.7082" gradientUnits="userSpaceOnUse">
<stop stop-color="white"/>
<stop offset="1" stop-color="white" stop-opacity="0"/>
</linearGradient>
</defs>
</svg>
